<?xml version="1.0" standalone="no"?>
<!DOCTYPE svg PUBLIC "-//W3C//DTD SVG 20010904//EN"
 "http://www.w3.org/TR/2001/REC-SVG-20010904/DTD/svg10.dtd">
<svg version="1.0" xmlns="http://www.w3.org/2000/svg"
 width="512.000000pt" height="512.000000pt" viewBox="0 0 512.000000 512.000000"
 preserveAspectRatio="xMidYMid meet">
<metadata>
Created by potrace 1.11, written by Peter Selinger 2001-2013
</metadata>
<g transform="translate(0.000000,512.000000) scale(0.100000,-0.100000)"
fill="#000000" stroke="none">
<path d="M0 2560 l0 -2560 2560 0 2560 0 0 2560 0 2560 -2560 0 -2560 0 0
-2560z m3410 2109 c68 -15 116 -52 147 -112 25 -48 27 -64 34 -227 4 -96 10
-190 14 -207 9 -38 10 -38 -46 -18 -52 19 -56 15 -90 -74 -36 -98 -43 -197
-25 -377 20 -204 20 -388 1 -493 -47 -244 -168 -474 -345 -651 -147 -148 -307
-239 -600 -343 -388 -137 -493 -231 -870 -787 -168 -248 -269 -386 -617 -841
-191 -251 -237 -306 -253 -302 -11 3 -20 7 -20 9 0 1 38 61 84 131 95 146 627
993 783 1247 195 318 299 426 738 761 121 92 245 188 275 214 261 217 406 392
521 626 131 268 132 494 1 580 -78 51 -252 68 -458 44 -52 -6 -97 -9 -99 -7
-6 6 38 168 76 283 48 146 142 327 206 396 68 72 122 106 222 136 84 24 240
31 321 12z m-1190 -1555 c-6 -14 -10 -163 -10 -350 l0 -325 30 21 c17 12 30
19 30 16 0 -29 -932 -656 -975 -656 -9 0 -29 7 -46 15 l-30 16 98 108 c174
191 408 491 743 954 90 125 165 227 167 227 1 0 -2 -12 -7 -26z"/>
</g>
</svg>
