<svg id="Layer_1" xmlns="http://www.w3.org/2000/svg" xml:space="preserve" height="256px" viewBox="0 0 500 256" width="500px" version="1.1" y="0px" x="0px" xmlns:xlink="http://www.w3.org/1999/xlink" enable-background="new 0 0 500 256">
<path d="m139.53 1c4.72-0.562 17.637-1 20.59 5.86 3.18 4.3 2.65 9.9 2.48 14.93-0.25 4.28 0.81 8.48 1.1 12.73-1.85-0.57-3.7-1.15-5.56-1.67-1.65 3.3-3.3 6.68-3.82 10.38-2.02 11.59 1.85 23.13 1.11 34.75-0.43 18.05-8.73 35.38-21.4 48.04-8.65 8.52-19.76 13.98-31.15 17.85-8.7 3.06-17.82 5.89-24.91 12.06-13.73 11.67-22.71 27.58-32.85 42.211-13.84 19.56-28.19 37.75-42.64 56.86l-0.79 1c-0.22-0.311-0.65-0.93-0.87-1.24l-0.82 0.37v-0.7c16.01-24 30.52-48.97 46.29-73.13 4.1-6.81 7.79-13.93 12.98-20.01 16.98-21.01 41.94-33.16 60.5-52.5 8.6-8.85 15.89-19.17 20.22-30.78 2.33-6.39 3.76-13.47 2.09-20.19-1.1-4.37-4.84-7.65-9.11-8.8-9.15-2.59-18.76-0.98-28.01 0.13 3.26-12.99 7.02-26.27 14.84-37.33 4.57-6.52 11.92-9.64 19.73-10.82z" fill="#41D189"/>
<linearGradient id="SVGID_1_" y2="147.75" gradientUnits="userSpaceOnUse" x2="135.93" gradientTransform="matrix(1 0 0 -1 0 257)" y1="147.75" x1="27.05">
	<stop stop-color="#41D189" offset="0"/>
	<stop stop-color="#41D189" stop-opacity="0" offset="1"/>
</linearGradient>
<path d="m102.13 55.81c7.53-1.49 15.22-2.4 22.9-2.03 4.27 0.13 8.97 2.32 10.42 6.61 1.06 5.16 0.29 10.6-1.63 15.47-2.64 6.91-6.29 13.4-10.51 19.45-3.24 4.7-7.67 8.35-11.79 12.23-11.64 10.47-23.85 20.33-36.65 29.36-12.55 8.94-25.76 16.9-38.63 25.36-1.43 0.91-2.84 1.881-4.41 2.551-1.73-0.16-3.21-1.25-4.78-1.91 3.44-3.529 6.84-7.09 10.04-10.84 15.5-18.399 29.46-38.021 43.35-57.641 8.64-11.999 16.57-24.679 21.69-38.609z" fill="url(#SVGID_1_)"/>
<path d="m442.04 76.24c2.6 0.03 5.2 0.02 7.81-0.021-0.76 3.49-1.52 6.98-2.31 10.46-2.64 0.02-5.29 0.05-7.92 0.11 0.59-3.559 1.31-7.109 2.42-10.549z" fill="#41D189"/>
<path d="m258.54 101.28c2.569 0.01 5.14-0.01 7.71-0.07-2.73 14.38-6.88 28.45-9.4 42.87-0.6 4.71-1.24 10.779 3.131 13.96 4.459 3.2 10.391 1.34 14.439-1.64 5.439-4.142 11.59-8.78 13.5-15.66 2.91-13.11 6.24-26.12 8.891-39.28 2.689-0.15 5.399-0.18 8.101-0.23-4.7 21.47-9.882 42.84-14.802 64.27-2.528-0.04-5.06-0.061-7.6-0.061 0.78-3.92 1.54-7.869 2.85-11.649-4.35 4.61-8.988 9.25-15.028 11.569-6.21 2.621-14.688 2.041-18.899-3.789-4.281-5.58-3.071-13.12-2.131-19.57 2.65-13.67 6.41-27.09 9.24-40.72z" fill="#41D189"/>
<path d="m364.18 73.07c-2.18 9.67-4.52 19.29-6.71 28.95-9.778-1.08-20.85-4.27-29.688 1.78-12.222 8.62-17.91 23.79-19.37 38.19-0.102 6.56-1.312 14.01 2.96 19.619 3.6 5.07 10.56 5.91 16.24 4.791 7.02-1.721 12.63-6.58 17.55-11.631-0.57 3.59-1.32 7.141-1.93 10.721 2.25 0 4.51 0.109 6.77-0.1 1.28-0.781 1.19-2.531 1.68-3.791 6.69-29.569 13.83-59.041 20.44-88.621-2.65 0.041-5.3 0.071-7.94 0.091zm-15.32 66.77c-0.852 4.98-4.94 8.34-8.271 11.77-4.31 3.922-9.31 8.371-15.51 8.172-4.7 0.1-8.76-4.07-8.7-8.73-0.47-14.229 3.19-29.74 13.71-39.94 7.09-6.46 17.391-3.65 25.79-2.08-2.33 10.27-4.71 20.53-7.02 30.81z" fill="#41D189"/>
<path d="m412.98 101.98c-4.41 0.32-8.54-1.57-12.892-1.86-6.1-0.49-12.57 0.7-17.53 4.45-8.368 6.33-12.818 17.81-10.1 28.05 1.04 3.93 4.35 6.56 7.5 8.819-2.49 3.221-5.21 6.529-6.02 10.631-0.512 2.438 0.46 4.83 0.97 7.18-5.36 3.33-11.07 6.76-14.352 12.35-3.568 5.73-2.68 13.91 2.28 18.551 4.5 4.391 11.021 5.75 17.11 5.819 7.7 0 15.729-1.409 22.2-5.84 5.14-3.44 9.448-8.76 10.13-15.09 0.568-4.64-0.21-10.101-4.25-13.04-6.472-4.76-14.932-4.05-22.38-5.84-1.83-0.4-4.11-1.301-4.4-3.41-0.46-3.65 2.3-6.52 4.06-9.41 4.882 0.21 9.9 0.15 14.562-1.52 7.5-2.551 12.88-9.271 15.359-16.602 1.971-5.4 1.069-11.22-0.289-16.64 6.47-0.25 12.93 0.22 19.39 0.2-4.11 18.92-8.88 37.689-12.91 56.63 2.57 0.04 5.15 0.069 7.74 0.14 5.17-21.51 9.979-43.12 15.13-64.65-10.45-0.06-20.88 0.56-31.31 1.08zm-26.62 61.54c5.198 1.021 10.858 0.82 15.568 3.562 3.63 2.49 3.15 7.778 1.49 11.319-3 5.899-9.66 8.709-15.79 10.109-5.85 0.92-12.53 0.98-17.57-2.59-4.528-3.23-5.22-10.279-1.67-14.49 3.012-3.63 6.78-6.77 11.07-8.77 2.31-0.35 4.61 0.61 6.9 0.86zm17.04-32.14c-4.28 4.771-11.4 6.33-17.46 4.69-3.61-0.95-6.16-4.37-6.44-8.03-1-8.59 4.41-18.03 12.86-20.57 3.738-0.87 7.818-0.689 11.39 0.79 3.46 1.42 4.86 5.37 5.07 8.83 0.44 5.29-1.97 10.41-5.42 14.29z" fill="#41D189"/>
<g enable-background="new    ">
	<path d="m452.73 147.17c0 3.9 1.191 6.978 3.576 9.23 2.382 2.254 5.307 3.38 8.774 3.38 6.673 0 13.042-0.78 19.11-2.34l3.119-0.91-0.52 6.37c-7.54 2.6-14.734 3.899-21.58 3.899-13.607 0-20.41-6.412-20.41-19.24 0-11.785 2.815-22.575 8.45-32.369 2.685-4.766 6.325-8.601 10.92-11.506 4.593-2.902 9.792-4.354 15.601-4.354 12.219 0 18.33 4.939 18.33 14.82 0 7.627-2.947 12.979-8.841 16.055-5.895 3.077-15.124 4.615-27.69 4.615h-7.279c-1.03 4.34-1.56 8.45-1.56 12.35zm10.41-18.72c9.533 0 16.445-1.018 20.734-3.056 4.291-2.035 6.436-5.784 6.436-11.244s-3.64-8.19-10.92-8.19c-11.354 0-19.327 7.497-23.92 22.49h7.67z" fill="#41D189"/>
</g>
<path d="m242.84 100.82c1.12-5.86 1.43-12.55-1.91-17.78-3.77-5.32-10.84-6.57-16.94-6.55-9.32 0.1-18.65-0.13-27.96 0.08-1.98-0.29-2.06 2.02-2.45 3.33-6.29 28.55-13.36 56.94-19.38 85.54 10.59 0.11 21.19 0.041 31.78 0.062 8.55-0.08 17.57-2.569 23.64-8.88 7.09-6.9 9.24-17.602 7.55-27.08-1.09-5.02-5.6-8.07-9.95-10.11 7.43-3.76 13.88-10.24 15.62-18.61zm-10.22 4.8c-2.61 4.33-6.46 8.65-11.73 9.41-2.37 0.59-4.98 0.54-7.14 1.77-1.88 1.53-1.01 4.2-1.31 6.29 5.34 1.05 12.15 0.77 15.49 5.92 2.69 5.33 1.31 11.76-0.82 17.051-2.97 7.221-10.48 11.709-18.1 12.189-8.37 0.52-16.76 0.21-25.13 0.141 5.57-24.971 11.25-49.921 17.01-74.859 7.36 0.02 14.74-0.16 22.11 0.04 3.91 0.25 8.75 0.8 10.87 4.61 2.82 5.479 1.43 12.179-1.25 17.439z" fill="#41D189"/>
</svg>
